<svg xmlns="http://www.w3.org/2000/svg" version="1.1" xmlns:xlink="http://www.w3.org/1999/xlink" width="760" height="760"><svg xmlns="http://www.w3.org/2000/svg" xmlns:xlink="http://www.w3.org/1999/xlink" width="760" height="760">
	<path fill="#192A30" d="M195.36 40.6325L501.587 40.4747L594.184 40.5421L628.747 40.6982C635.503 40.7261 642.425 40.4689 649.161 40.9988C657.163 41.6283 665.853 43.224 673.644 45.1002C678.862 46.3569 683.566 48.8457 688.311 51.2651C702.501 58.4997 712.843 65.9502 724.184 77.1993C745.742 98.5835 755.713 126.682 757.218 156.66C757.722 166.7 757.156 176.807 757.098 186.851C757.007 202.894 757.291 218.95 757.334 234.994L757.204 497.079L757.133 564.537L757.173 592.302C757.18 598.102 757.423 604.01 756.857 609.784C756.347 614.98 755.154 620.268 754.092 625.378C749.615 647.012 738.92 666.869 723.319 682.513C703.2 702.817 676.474 715.243 647.983 717.54C638.089 718.424 627.814 718.017 617.871 718.043L569.165 718.07L246.042 718.042L161.485 718.07L136.355 717.994C124.375 717.981 112.737 718.088 100.912 715.78C76.1897 710.955 57.7648 700.688 39.9529 683.1C18.9916 662.402 7.93647 635.231 5.75465 606.129C4.88682 594.554 5.35491 582.608 5.29492 570.989L5.24259 276.085L5.20997 196.188C5.17744 177.241 3.8613 155.526 7.32585 136.982C11.4938 114.671 22.5612 92.498 38.5765 76.3425C43.5262 71.3495 48.5299 66.3368 54.2175 62.1752C56.893 60.2175 59.976 58.6697 62.8586 57.0354C77.0071 49.0139 92.4643 43.0568 108.736 41.3826C119.842 40.2398 131.23 40.7255 142.383 40.7284L195.36 40.6325Z"></path>
	<path fill="#FCFCFC" d="M358.572 676.195C350.591 675.397 342.198 675.856 334.172 675.846L290.247 675.823L153.521 675.693C121.016 675.7 95.401 678.266 70.1601 652.819C59.0464 641.502 51.6828 627.04 49.0682 611.396C47.7554 603.313 47.8948 595.149 47.8869 586.99L47.8861 561.704L47.9026 473.493L47.8972 165.975C47.9108 160.055 47.9398 154.123 48.7549 148.247C51.1378 131.669 58.8642 116.321 70.7613 104.533C81.4477 93.966 95.0236 86.8 109.777 83.9384C120.903 81.7629 132.878 82.6257 144.18 82.6267L193.119 82.6344L373.572 82.571C381.585 82.5959 388.575 83.4935 394.391 89.5612C397.468 92.7715 398.917 95.8111 399.523 100.196C400.489 107.172 399.964 114.638 399.965 121.693L399.973 159.769L399.968 205.491C399.966 212.447 400.815 223.269 399.305 229.824C398.187 234.678 392.607 238.643 389.391 242.222C382.294 250.121 378.767 260.67 378.226 271.152C377.774 279.896 378.014 288.724 378.028 297.479L378.088 340.52L378.235 493.975C377.662 514.725 376.167 536.525 391.639 552.77C397.946 559.392 404.922 562.784 413.068 566.594C414.229 568.637 415.049 570.552 417.495 571.256C420.378 572.087 423.79 571.755 426.769 571.706C433.115 571.6 450.304 570.653 455.51 572.139C457.572 572.728 459.386 573.867 460.538 575.709C462.194 578.358 462.198 582.069 461.378 584.997C460.909 586.671 460.137 588.142 459.131 589.552C455.512 594.625 451.154 599.331 447.088 604.058L426.504 627.762L399.637 658.418C394.931 663.739 390.314 669.236 385.351 674.316C383.027 676.696 379.877 680.026 376.845 681.469C373.649 682.99 369.289 682.591 366.111 681.26C363.35 680.104 360.856 678.099 358.572 676.195Z"></path>
	<path fill="#0097D5" d="M358.572 676.195C356.453 673.737 353.801 671.551 351.464 669.288C346.983 664.955 342.646 660.477 338.459 655.86L301.374 613.65L288.68 599.389C285.92 596.288 282.858 593.193 280.599 589.702C278.921 587.111 278.192 585.158 278.435 582.036C278.693 578.719 280.02 575.959 282.949 574.248C291.925 569.005 323.354 575.027 327.497 570.833C330.094 568.205 329.071 560.04 329.048 556.43L329.01 523.455C329.005 517.369 328.332 510.305 329.555 504.354C330.036 501.935 331.252 499.724 333.036 498.021C334.707 496.399 336.772 495.241 339.027 494.66C344.44 493.273 351.057 493.931 356.63 493.952L378.235 493.975C377.662 514.725 376.167 536.525 391.639 552.77C397.946 559.392 404.922 562.784 413.068 566.594C414.229 568.637 415.049 570.552 417.495 571.256C420.378 572.087 423.79 571.755 426.769 571.706C433.115 571.6 450.304 570.653 455.51 572.139C457.572 572.728 459.386 573.867 460.538 575.709C462.194 578.358 462.198 582.069 461.378 584.997C460.909 586.671 460.137 588.142 459.131 589.552C455.512 594.625 451.154 599.331 447.088 604.058L426.504 627.762L399.637 658.418C394.931 663.739 390.314 669.236 385.351 674.316C383.027 676.696 379.877 680.026 376.845 681.469C373.649 682.99 369.289 682.591 366.111 681.26C363.35 680.104 360.856 678.099 358.572 676.195Z"></path>
	<path fill="#192A30" d="M231.066 179.946C232.269 173.518 234.034 150.875 237.765 146.62C238.948 145.271 240.894 145.214 242.577 145.116C246.434 144.892 250.38 145.259 254.248 145.264C258.208 145.27 262.417 144.716 266.342 145.244C267.193 145.359 268.166 145.567 268.759 146.239C272.252 150.199 267.279 173.556 266.255 179.939C269.83 179.967 287.438 178.949 289.73 181.079C291.549 182.77 291.898 186.865 291.99 189.203C292.191 194.353 293.175 209.932 289.672 213.397C287.566 215.48 265.414 214.528 261.055 214.519L255.85 249.907C259.684 250.057 274.923 248.816 277.559 250.856C279.65 252.473 279.981 256.616 280.076 259.043C280.28 264.28 281.222 279.997 277.583 283.28C274.659 285.918 255.007 284.748 250.396 284.725C249.742 290.195 247.274 313.72 244.579 317.083C243.403 318.549 241.889 318.651 240.146 318.796C233.733 318.796 222.222 319.554 216.466 318.679C215.211 318.489 213.646 318.064 212.782 317.054C211.931 316.06 211.655 314.955 211.617 313.678C211.517 310.305 212.454 306.483 212.951 303.134C213.876 297.033 214.731 290.921 215.518 284.8L180.01 284.792C178.768 291.107 176.697 314.363 172.734 317.77C171.78 318.59 170.059 318.735 168.86 318.831C164.937 319.148 160.851 318.74 156.911 318.717C152.854 318.693 148.624 319.215 144.604 318.64C143.704 318.512 142.108 318.204 141.618 317.367C139.235 313.293 143.915 290.347 144.878 284.706C140.751 284.738 124.187 285.876 121.058 283.631C119.279 282.354 118.56 278.959 118.387 276.94C117.97 272.106 117.388 254.496 120.318 251.311C122.509 248.928 145.819 249.916 150.223 249.929L155.689 214.551C151.754 214.624 135.98 215.8 133.145 213.531C131.551 212.254 131.102 208.762 130.979 206.881C130.669 202.12 129.802 184.114 133.405 180.949C135.713 178.922 157.066 179.925 161.64 179.938C162.476 173.175 164.544 153.332 167.183 148.143C168.061 146.416 169.094 145.751 170.911 145.216C177.531 145.057 189.825 144.496 196.022 145.322C197.027 145.456 198.314 145.656 198.942 146.514C201.887 150.534 197.012 174.17 196.119 179.934L231.066 179.946Z"></path>
	<path fill="#FCFCFC" d="M190.937 214.755L225.433 214.824L220.362 249.907C208.891 250.194 197.3 250.044 185.824 249.898C187.747 238.223 189.167 226.456 190.937 214.755Z"></path>
	<path fill="#192A30" d="M126.743 379.027C136.206 378.76 145.718 378.942 155.186 378.942L206.167 378.941L254.803 378.933C263.308 378.933 271.88 378.711 280.378 378.97C282.482 379.035 286.004 379.114 287.905 380.038C289.827 380.973 291.144 384.243 291.59 386.169C292.775 391.29 292.875 404.181 290.055 408.447C288.58 410.678 286.733 411.394 284.207 411.947C273.847 412.212 263.438 412.018 253.073 412.018L195.712 412.015L149.694 412.024C142.475 412.029 135.168 412.344 127.958 412.089C126.3 412.03 124.029 412.052 122.626 411.1C120.256 409.492 119.037 407.24 118.579 404.439C117.765 399.466 117.281 386.18 120.144 382.3C121.862 379.973 123.99 379.376 126.743 379.027Z"></path>
	<path fill="#192A30" d="M128.837 459.962C154.513 459.353 180.328 459.922 206.018 459.911L241.779 459.893C248.299 459.892 254.925 459.651 261.435 460.006C263.437 460.115 267.627 460.335 269.136 461.655C271.128 463.397 271.845 466.354 272.075 468.872C272.498 473.497 272.593 482.898 271.694 487.297C271.434 488.586 270.844 489.784 269.98 490.775C267.952 493.059 265.342 493.416 262.456 493.517L172.721 493.497L144.056 493.506C138.891 493.507 133.619 493.708 128.467 493.432C126.382 493.321 122.579 493.045 120.99 491.686C119.244 490.193 118.605 487.132 118.366 484.977C117.838 480.219 117.469 466.345 120.375 462.927C122.562 460.356 125.722 460.146 128.837 459.962Z"></path>
	<path fill="#FCFCFC" d="M411.549 465.406L411.552 332.901L411.536 293.527C411.531 286.678 410.939 279.136 411.916 272.363C412.684 267.37 415.042 262.759 418.641 259.215C422.221 255.64 426.975 252.873 432.024 252.157C440.308 250.981 449.341 251.58 457.713 251.587L503.949 251.643C562.662 251.277 621.377 251.212 680.09 251.45C688.475 251.526 695.694 252.828 701.775 258.996C705.406 262.729 707.769 267.51 708.528 272.662C709.673 280.563 708.97 289.434 708.968 297.434L708.971 343.278L709.219 497.999C709.694 499.579 709.517 501.694 709.549 503.341C709.755 514.049 710.036 524.833 702.013 533.041C698.457 536.68 693.469 538.827 688.477 539.608C682.233 540.586 675.05 539.976 668.712 539.977L630.492 539.964L496.444 540.292L458.311 540.369C449.514 540.377 439.573 541.258 430.979 539.304C426.413 538.266 422.089 536.126 418.791 532.756C415.624 529.519 413.314 525.128 412.262 520.735C410.577 513.697 411.425 505.221 411.424 498.003C411.366 487.137 411.408 476.271 411.549 465.406Z"></path>
	<path fill="#00AB94" d="M411.549 465.406C419.99 455.714 427.562 444.497 435.264 434.151L474.129 382.131L486.513 365.414C489.226 361.743 491.787 357.609 495.172 354.527C498.021 351.933 501.888 350.479 505.716 350.256C510.493 349.977 514.905 351.68 518.375 354.921C527.443 363.39 537.457 378.065 544.872 388.242L573.022 426.394C576.769 431.464 582.913 441.446 587.694 444.839C587.728 444.864 587.762 444.89 587.797 444.915C592.146 445.342 594.735 444.742 598.248 441.906C605.686 435.902 615.903 421.5 623.346 417.551C626.061 416.133 629.141 415.565 632.184 415.921C635.81 416.311 639.223 418.009 642.016 420.31C649.66 426.607 658.91 438.711 665.707 446.415L688.038 471.755C693.147 477.566 698.356 483.287 703.093 489.411C705.235 492.18 707.056 495.303 709.219 497.999C709.694 499.579 709.517 501.694 709.549 503.341C709.755 514.049 710.036 524.833 702.013 533.041C698.457 536.68 693.469 538.827 688.477 539.608C682.233 540.586 675.05 539.976 668.712 539.977L630.492 539.964L496.444 540.292L458.311 540.369C449.514 540.377 439.573 541.258 430.979 539.304C426.413 538.266 422.089 536.126 418.791 532.756C415.624 529.519 413.314 525.128 412.262 520.735C410.577 513.697 411.425 505.221 411.424 498.003C411.366 487.137 411.408 476.271 411.549 465.406Z"></path>
	<path fill="#FECC10" d="M620.913 287.629C648.203 287.824 670.174 310.095 670 337.386C669.826 364.676 647.572 386.665 620.281 386.511C592.96 386.358 570.943 364.075 571.117 336.754C571.292 309.434 593.592 287.433 620.913 287.629Z"></path>
	<path fill="#0097D5" d="M539.311 82.5688C558.791 82.1386 578.345 82.4924 597.836 82.474L624.801 82.4547C635.715 82.4503 646.76 82.0508 657.448 84.6535C670.104 87.785 681.719 94.1734 691.141 103.184C704.367 115.65 712.703 132.431 714.645 150.502C715.65 160.477 715.057 170.864 715.06 180.893L715.055 217.534C715.041 224.129 714.808 230.75 715.035 237.341C713.249 234.744 711.383 232.247 709.148 230.012C705.174 226.038 699.903 222.834 694.429 221.452C684.231 218.876 670.73 220.442 660.15 220.51L617.465 220.506L558.102 220.527C550.538 220.528 537.183 221.237 530.158 220.248C527.731 219.906 525.899 217.752 524.328 216.002C520.427 211.655 516.976 206.747 513.436 202.095L494.201 176.531L448.538 115.741C440.395 104.875 432.525 93.7439 424.102 83.097C462.506 83.1204 500.909 82.9443 539.311 82.5688Z"></path>
	<path fill="#0097D5" d="M714.285 558.383C714.628 558.699 714.591 558.58 714.719 559.046C715.733 562.737 715.08 572.14 715.082 576.385C715.096 599.534 716.648 617.516 704.035 638.507C693.91 655.357 676.832 668.444 657.653 673.133C651.61 674.582 645.434 675.401 639.223 675.577C620.401 676.267 601.324 675.668 582.481 675.673L472.647 675.676C468.39 675.676 426.03 676.215 424.694 675.408L424.942 674.806C444.327 652.039 463.082 628.743 481.186 604.945C485.725 598.965 490.133 592.887 494.406 586.714C497.676 581.953 500.804 576.46 504.853 572.324C510.612 571.708 516.578 572.009 522.37 572.017L551.814 572.053L649.441 572.001C661.678 571.952 682.822 573.011 693.914 570.41C702.078 568.496 708.401 564.193 714.285 558.383Z"></path>
</svg><style>@media (prefers-color-scheme: light) { :root { filter: none; } }
@media (prefers-color-scheme: dark) { :root { filter: none; } }
</style></svg>